<svg width="16" height="16" viewBox="0 0 16 16" fill="none" xmlns="http://www.w3.org/2000/svg">
<path d="M14.8903 0.715629L11.9465 0.0375043C11.2715 -0.118746 10.584 0.231254 10.3121 0.868754L8.95276 4.04063C8.70276 4.62188 8.87151 5.30938 9.36213 5.70938L10.6121 6.73125C9.71838 8.36875 8.36838 9.71875 6.73088 10.6094L5.70901 9.35938C5.30901 8.86875 4.62151 8.7 4.04026 8.95L0.865258 10.3094C0.227758 10.5813 -0.119117 11.2688 0.0340082 11.9438L0.712133 14.8875C0.862133 15.5406 1.43713 15.9969 2.10588 15.9969C9.75901 16 15.9996 9.80313 15.9996 2.10938C15.9996 1.44063 15.5434 0.865629 14.8903 0.715629ZM2.16526 14.5L1.51213 11.6656L4.58088 10.35L6.32151 12.4781C9.40901 11.0281 11.0278 9.41563 12.4778 6.32188L10.3496 4.58125L11.6653 1.5125L14.4996 2.16563C14.4684 8.96563 8.96526 14.4688 2.16526 14.5Z" fill="#1A1A1A"/>
</svg>
