<svg width="128" height="43" viewBox="0 0 128 43" fill="none" xmlns="http://www.w3.org/2000/svg">
<path d="M124 1H4C2.34315 1 1 2.34315 1 4V39.6983C1 41.3551 2.34315 42.6983 4 42.6983H124C125.657 42.6983 127 41.3551 127 39.6983V4C127 2.34315 125.657 1 124 1Z" stroke="black"/>
<path fill-rule="evenodd" clip-rule="evenodd" d="M49.6853 31.7185H47.5234L46.3392 28.0289H42.223L41.095 31.7185H38.9902L43.0683 19.1576H45.5872L49.6853 31.7185ZM45.9822 26.481H42.581L43.6328 23.2011C43.9089 22.1581 44.1098 21.3691 44.2345 20.8349H44.2725C44.5857 22.077 44.798 22.866 44.9113 23.2011L45.9822 26.481ZM60.1728 27.0785C60.1728 28.6188 59.753 29.8364 58.9134 30.7302C58.1614 31.5259 57.2275 31.9233 56.1128 31.9233C54.9095 31.9233 54.0452 31.4948 53.5187 30.6378H53.4807V35.4089H51.4511V25.6429C51.4511 24.6745 51.4254 23.6806 51.3759 22.6612H53.1608L53.2741 24.0968H53.3122C53.989 23.0152 55.0161 22.4753 56.3946 22.4753C57.4722 22.4753 58.3717 22.8972 59.0914 23.7419C59.813 24.5876 60.1728 25.6995 60.1728 27.0785ZM58.1052 27.1521C58.1052 26.2705 57.9053 25.5438 57.5036 24.9718C57.0647 24.3753 56.4755 24.077 55.7368 24.077C55.236 24.077 54.781 24.2431 54.3745 24.5706C53.9671 24.901 53.7006 25.3323 53.5759 25.8666C53.513 26.1157 53.4816 26.3196 53.4816 26.4801V27.9902C53.4816 28.649 53.6853 29.205 54.0928 29.659C54.5002 30.113 55.0295 30.3395 55.6806 30.3395C56.445 30.3395 57.04 30.0469 57.4655 29.4636C57.892 28.8793 58.1052 28.1092 58.1052 27.1521ZM70.6794 27.0785C70.6794 28.6188 70.2596 29.8364 69.419 30.7302C68.6679 31.5259 67.7341 31.9233 66.6193 31.9233C65.4161 31.9233 64.5517 31.4948 64.0263 30.6378H63.9882V35.4089H61.9586V25.6429C61.9586 24.6745 61.9329 23.6806 61.8834 22.6612H63.6683L63.7816 24.0968H63.8197C64.4956 23.0152 65.5227 22.4753 66.9021 22.4753C67.9787 22.4753 68.8783 22.8972 69.5999 23.7419C70.3186 24.5876 70.6794 25.6995 70.6794 27.0785ZM68.6118 27.1521C68.6118 26.2705 68.4109 25.5438 68.0092 24.9718C67.5703 24.3753 66.983 24.077 66.2433 24.077C65.7417 24.077 65.2876 24.2431 64.8801 24.5706C64.4727 24.901 64.2071 25.3323 64.0824 25.8666C64.0205 26.1157 63.9882 26.3196 63.9882 26.4801V27.9902C63.9882 28.649 64.1919 29.205 64.5974 29.659C65.0049 30.112 65.5341 30.3395 66.1872 30.3395C66.9516 30.3395 67.5465 30.0469 67.972 29.4636C68.3985 28.8793 68.6118 28.1092 68.6118 27.1521ZM82.4263 28.196C82.4263 29.2644 82.0522 30.1337 81.3011 30.8048C80.4758 31.5382 79.3268 31.9044 77.8503 31.9044C76.4872 31.9044 75.3943 31.6439 74.5671 31.122L75.0373 29.4447C75.9284 29.9789 76.906 30.247 77.9712 30.247C78.7356 30.247 79.3306 30.0752 79.758 29.7335C80.1835 29.3919 80.3958 28.9331 80.3958 28.3612C80.3958 27.8515 80.2207 27.422 79.8694 27.0737C79.52 26.7255 78.9365 26.4017 78.1216 26.1025C75.9036 25.2823 74.7956 24.0808 74.7956 22.5008C74.7956 21.4682 75.1839 20.6215 75.9617 19.9627C76.7366 19.303 77.7704 18.9736 79.0631 18.9736C80.2159 18.9736 81.1735 19.1727 81.938 19.5701L81.4306 21.2105C80.7166 20.8254 79.9094 20.6329 79.006 20.6329C78.292 20.6329 77.7342 20.8075 77.3344 21.1548C76.9964 21.4654 76.827 21.8438 76.827 22.2922C76.827 22.7886 77.0202 23.1992 77.4086 23.522C77.7466 23.8203 78.3606 24.1431 79.2516 24.4914C80.3416 24.9265 81.1421 25.4352 81.6571 26.0185C82.1702 26.5999 82.4263 27.3276 82.4263 28.196ZM89.1365 24.1714H86.8995V28.5688C86.8995 29.6873 87.2936 30.2461 88.0837 30.2461C88.4464 30.2461 88.7472 30.2149 88.9852 30.1526L89.0413 31.6807C88.6415 31.8289 88.1151 31.9035 87.463 31.9035C86.6615 31.9035 86.0351 31.6609 85.5829 31.1767C85.1327 30.6916 84.9061 29.8779 84.9061 28.7349V24.1695H83.5734V22.6593H84.9061V21.001L86.8995 20.4045V22.6593H89.1365V24.1714ZM99.2299 27.1153C99.2299 28.5075 98.8282 29.6505 98.0267 30.5443C97.1861 31.4646 96.0705 31.9233 94.6797 31.9233C93.3393 31.9233 92.2722 31.4825 91.4764 30.6009C90.6806 29.7194 90.2827 28.6066 90.2827 27.2654C90.2827 25.8618 90.692 24.7122 91.5135 23.8184C92.3331 22.9236 93.4393 22.4762 94.8301 22.4762C96.1704 22.4762 97.249 22.917 98.0629 23.7995C98.8416 24.6556 99.2299 25.7608 99.2299 27.1153ZM97.1243 27.1804C97.1243 26.3451 96.9443 25.6287 96.5798 25.0312C96.1542 24.3082 95.5459 23.9477 94.7577 23.9477C93.9419 23.9477 93.3222 24.3092 92.8967 25.0312C92.5321 25.6296 92.3522 26.3574 92.3522 27.2182C92.3522 28.0535 92.5321 28.7699 92.8967 29.3664C93.3355 30.0894 93.9486 30.4499 94.7396 30.4499C95.5145 30.4499 96.1228 30.0818 96.5617 29.3475C96.9358 28.7387 97.1243 28.0148 97.1243 27.1804ZM105.827 24.431C105.626 24.3941 105.412 24.3753 105.187 24.3753C104.473 24.3753 103.921 24.6424 103.533 25.1775C103.195 25.6495 103.025 26.246 103.025 26.9662V31.7185H100.997L101.016 25.5136C101.016 24.4697 100.99 23.5192 100.94 22.6622H102.707L102.782 24.3951H102.838C103.052 23.7995 103.39 23.32 103.853 22.9604C104.305 22.6367 104.793 22.4753 105.32 22.4753C105.507 22.4753 105.676 22.4885 105.827 22.5121V24.431ZM114.904 26.7613C114.904 27.1219 114.88 27.4258 114.829 27.674H108.741C108.765 28.5688 109.059 29.2531 109.624 29.725C110.137 30.1469 110.801 30.3584 111.616 30.3584C112.517 30.3584 113.34 30.2158 114.079 29.9299L114.397 31.3268C113.533 31.7005 112.512 31.8865 111.335 31.8865C109.918 31.8865 108.806 31.4731 107.997 30.6472C107.19 29.8213 106.785 28.7123 106.785 27.321C106.785 25.9553 107.162 24.8179 107.914 23.9109C108.703 22.9425 109.768 22.4583 111.108 22.4583C112.425 22.4583 113.421 22.9425 114.098 23.9109C114.634 24.6801 114.904 25.6315 114.904 26.7613ZM112.968 26.2394C112.982 25.6429 112.849 25.1275 112.574 24.6924C112.223 24.1327 111.683 23.8533 110.957 23.8533C110.293 23.8533 109.754 24.1261 109.341 24.6735C109.004 25.1086 108.803 25.6306 108.741 26.2384H112.968V26.2394Z" fill="black"/>
<path fill-rule="evenodd" clip-rule="evenodd" d="M45.311 11.4303C45.311 12.5412 44.975 13.3775 44.3039 13.9391C43.6823 14.4572 42.7989 14.7168 41.6546 14.7168C41.0873 14.7168 40.6018 14.6922 40.1953 14.6432V8.57323C40.7255 8.48828 41.2967 8.44486 41.9136 8.44486C43.0035 8.44486 43.8251 8.67988 44.3791 9.14992C44.9998 9.68131 45.311 10.4411 45.311 11.4303ZM44.2591 11.4577C44.2591 10.7375 44.0669 10.1853 43.6823 9.80024C43.2977 9.41609 42.736 9.22354 41.9964 9.22354C41.6822 9.22354 41.4147 9.24431 41.1929 9.28772V13.9022C41.3157 13.9211 41.5404 13.9296 41.8669 13.9296C42.6304 13.9296 43.2196 13.7191 43.6347 13.2982C44.0497 12.8772 44.2591 12.2637 44.2591 11.4577ZM50.8885 12.4006C50.8885 13.0849 50.6914 13.6455 50.2973 14.0853C49.8842 14.5375 49.3368 14.763 48.6533 14.763C47.9946 14.763 47.47 14.5469 47.0788 14.1127C46.6885 13.6795 46.4934 13.133 46.4934 12.4742C46.4934 11.7852 46.6942 11.2198 47.0978 10.7809C47.5015 10.342 48.0441 10.1221 48.7276 10.1221C49.3863 10.1221 49.9156 10.3382 50.3163 10.7715C50.6971 11.1924 50.8885 11.7361 50.8885 12.4006ZM49.8537 12.4327C49.8537 12.0221 49.7642 11.67 49.5862 11.3765C49.3768 11.0216 49.0788 10.8441 48.6914 10.8441C48.2906 10.8441 47.986 11.0216 47.7766 11.3765C47.5976 11.67 47.5091 12.0277 47.5091 12.4506C47.5091 12.8612 47.5986 13.2132 47.7766 13.5068C47.9927 13.8617 48.2935 14.0391 48.6819 14.0391C49.0626 14.0391 49.3615 13.8588 49.5767 13.4973C49.7614 13.1981 49.8537 12.8432 49.8537 12.4327ZM58.3669 10.2127L56.9628 14.662H56.0489L55.4673 12.73C55.3197 12.2477 55.1998 11.7682 55.1065 11.2925H55.0884C55.0018 11.7814 54.8818 12.2599 54.7276 12.73L54.1098 14.662H53.1855L51.8651 10.2127H52.8904L53.3978 12.3279C53.5206 12.8281 53.6215 13.3048 53.7024 13.7559H53.7205C53.7947 13.3841 53.9175 12.9102 54.0908 12.3373L54.7276 10.2136H55.5406L56.1508 12.292C56.2983 12.7989 56.4183 13.2868 56.5106 13.7569H56.5382C56.6058 13.2991 56.7077 12.8111 56.8428 12.292L57.3874 10.2136H58.3669V10.2127ZM63.5388 14.662H62.5412V12.1136C62.5412 11.3283 62.2403 10.9357 61.6368 10.9357C61.3408 10.9357 61.1018 11.0433 60.9162 11.2594C60.7325 11.4756 60.6392 11.7304 60.6392 12.0221V14.6611H59.6415V11.4841C59.6415 11.0933 59.6292 10.6695 59.6054 10.2108H60.4821L60.5288 10.9064H60.5564C60.6725 10.6903 60.8457 10.5119 61.0733 10.3694C61.3436 10.2033 61.6463 10.1193 61.9776 10.1193C62.3965 10.1193 62.7449 10.2533 63.0219 10.5223C63.3665 10.8517 63.5388 11.3434 63.5388 11.9966V14.662ZM65.2932 8.17114H66.2899V14.662H65.2932V8.17114ZM72.1634 12.4006C72.1634 13.0849 71.9663 13.6455 71.5722 14.0853C71.1591 14.5375 70.6107 14.763 69.9282 14.763C69.2685 14.763 68.744 14.5469 68.3537 14.1127C67.9634 13.6795 67.7683 13.133 67.7683 12.4742C67.7683 11.7852 67.9691 11.2198 68.3727 10.7809C68.7764 10.342 69.319 10.1221 70.0015 10.1221C70.6612 10.1221 71.1895 10.3382 71.5912 10.7715C71.972 11.1924 72.1634 11.7361 72.1634 12.4006ZM71.1277 12.4327C71.1277 12.0221 71.0382 11.67 70.8602 11.3765C70.6517 11.0216 70.3528 10.8441 69.9663 10.8441C69.5646 10.8441 69.26 11.0216 69.0515 11.3765C68.8725 11.67 68.784 12.0277 68.784 12.4506C68.784 12.8612 68.8735 13.2132 69.0515 13.5068C69.2676 13.8617 69.5684 14.0391 69.9568 14.0391C70.3375 14.0391 70.6355 13.8588 70.8506 13.4973C71.0363 13.1981 71.1277 12.8432 71.1277 12.4327ZM76.9916 14.662H76.0958L76.0216 14.1495H75.994C75.6874 14.5582 75.2505 14.763 74.6832 14.763C74.2595 14.763 73.9168 14.6281 73.6589 14.36C73.4247 14.1165 73.3076 13.8135 73.3076 13.4539C73.3076 12.9102 73.5361 12.4959 73.9958 12.209C74.4547 11.922 75.1001 11.7814 75.9311 11.788V11.7049C75.9311 11.1188 75.6208 10.8262 74.9992 10.8262C74.5565 10.8262 74.1662 10.9366 73.8293 11.1556L73.6265 10.5062C74.0434 10.2505 74.5584 10.1221 75.1658 10.1221C76.3386 10.1221 76.9269 10.7356 76.9269 11.9626V13.6011C76.9269 14.0457 76.9488 14.3997 76.9916 14.662ZM75.9559 13.133V12.4468C74.8555 12.4279 74.3052 12.7271 74.3052 13.3435C74.3052 13.5757 74.3681 13.7493 74.4966 13.8654C74.6251 13.9815 74.7888 14.0391 74.984 14.0391C75.2029 14.0391 75.4076 13.9702 75.5942 13.8333C75.7817 13.6955 75.8969 13.5209 75.9397 13.3067C75.9502 13.2585 75.9559 13.2 75.9559 13.133ZM82.6604 14.662H81.7751L81.7285 13.9475H81.7009C81.4181 14.4912 80.9364 14.763 80.2596 14.763C79.7189 14.763 79.2686 14.5526 78.9117 14.1316C78.5547 13.7106 78.3767 13.1641 78.3767 12.4931C78.3767 11.7729 78.5699 11.1896 78.9583 10.7441C79.3343 10.3288 79.7951 10.1212 80.3434 10.1212C80.946 10.1212 81.3677 10.3222 81.6076 10.7252H81.6266V8.17114H82.6252V13.4633C82.6252 13.8966 82.6366 14.2958 82.6604 14.662ZM81.6266 12.7857V12.0438C81.6266 11.9154 81.6171 11.8116 81.599 11.7323C81.5428 11.4945 81.4219 11.2944 81.2382 11.133C81.0526 10.9716 80.8289 10.8904 80.5709 10.8904C80.1987 10.8904 79.9074 11.0367 79.6932 11.3302C79.4809 11.6238 79.3734 11.9985 79.3734 12.4563C79.3734 12.8961 79.4752 13.2529 79.6799 13.5275C79.896 13.8201 80.1873 13.9664 80.5519 13.9664C80.8793 13.9664 81.1411 13.8447 81.3401 13.6002C81.5324 13.3746 81.6266 13.1028 81.6266 12.7857ZM91.1926 12.4006C91.1926 13.0849 90.9956 13.6455 90.6015 14.0853C90.1884 14.5375 89.6419 14.763 88.9575 14.763C88.2997 14.763 87.7752 14.5469 87.383 14.1127C86.9927 13.6795 86.7975 13.133 86.7975 12.4742C86.7975 11.7852 86.9984 11.2198 87.402 10.7809C87.8056 10.342 88.3482 10.1221 89.0327 10.1221C89.6905 10.1221 90.2207 10.3382 90.6205 10.7715C91.0013 11.1924 91.1926 11.7361 91.1926 12.4006ZM90.1588 12.4327C90.1588 12.0221 90.0694 11.67 89.8913 11.3765C89.681 11.0216 89.384 10.8441 88.9956 10.8441C88.5958 10.8441 88.2911 11.0216 88.0808 11.3765C87.9018 11.67 87.8133 12.0277 87.8133 12.4506C87.8133 12.8612 87.9027 13.2132 88.0808 13.5068C88.2968 13.8617 88.5977 14.0391 88.986 14.0391C89.3668 14.0391 89.6667 13.8588 89.8818 13.4973C90.0655 13.1981 90.1588 12.8432 90.1588 12.4327ZM96.5568 14.662H95.5602V12.1136C95.5602 11.3283 95.2593 10.9357 94.6549 10.9357C94.3588 10.9357 94.1199 11.0433 93.9352 11.2594C93.7505 11.4756 93.6582 11.7304 93.6582 12.0221V14.6611H92.6596V11.4841C92.6596 11.0933 92.6482 10.6695 92.6244 10.2108H93.5001L93.5468 10.9064H93.5744C93.6915 10.6903 93.8647 10.5119 94.0913 10.3694C94.3626 10.2033 94.6644 10.1193 94.9966 10.1193C95.4145 10.1193 95.7629 10.2533 96.0399 10.5223C96.3855 10.8517 96.5568 11.3434 96.5568 11.9966V14.662ZM103.271 10.9536H102.172V13.1151C102.172 13.6644 102.367 13.9391 102.754 13.9391C102.933 13.9391 103.081 13.9239 103.199 13.8928L103.224 14.6432C103.027 14.7168 102.768 14.7536 102.449 14.7536C102.055 14.7536 101.749 14.6347 101.527 14.3968C101.304 14.159 101.194 13.7588 101.194 13.1972V10.9536H100.538V10.2127H101.194V9.39721L102.171 9.10462V10.2118H103.27V10.9536H103.271ZM108.552 14.662H107.554V12.1325C107.554 11.335 107.253 10.9357 106.65 10.9357C106.188 10.9357 105.872 11.1669 105.698 11.6294C105.669 11.7267 105.652 11.8456 105.652 11.9853V14.6611H104.655V8.17114H105.652V10.8526H105.671C105.985 10.3647 106.435 10.1212 107.019 10.1212C107.432 10.1212 107.774 10.2552 108.045 10.5242C108.383 10.8592 108.552 11.3576 108.552 12.0164V14.662ZM114 12.2269C114 12.4043 113.987 12.5535 113.963 12.6752H110.971C110.984 13.1151 111.127 13.4501 111.404 13.6823C111.657 13.89 111.984 13.9938 112.384 13.9938C112.826 13.9938 113.23 13.9239 113.594 13.7833L113.75 14.4704C113.324 14.6536 112.824 14.7451 112.244 14.7451C111.549 14.7451 111.002 14.5422 110.606 14.1363C110.208 13.7305 110.011 13.1859 110.011 12.5025C110.011 11.8314 110.194 11.2727 110.565 10.8272C110.951 10.3515 111.474 10.1136 112.133 10.1136C112.779 10.1136 113.269 10.3515 113.6 10.8272C113.868 11.2047 114 11.6719 114 12.2269ZM113.048 11.9711C113.056 11.6776 112.99 11.4246 112.855 11.2113C112.682 10.9366 112.418 10.7988 112.061 10.7988C111.736 10.7988 111.47 10.9329 111.267 11.2019C111.102 11.4161 111.003 11.6719 110.971 11.9711H113.048Z" fill="black"/>
<path fill-rule="evenodd" clip-rule="evenodd" d="M27.0281 21.0478C27.0598 24.7229 30.2722 25.9378 30.3116 25.9511C30.2924 26.0367 29.8085 27.7044 28.6036 29.3979C27.5974 30.8886 26.5433 32.3461 24.8689 32.3728C23.2426 32.4099 22.6953 31.4243 20.8299 31.4243C18.9472 31.4243 18.3645 32.3461 16.8043 32.4099C15.2097 32.4679 13.9913 30.8182 12.9487 29.3408C10.8644 26.324 9.24189 20.8395 11.4174 17.1073C12.4716 15.2769 14.3936 14.0981 16.4482 14.0667C18.0448 14.0344 19.5261 15.1351 20.5073 15.1351C21.4693 15.1351 23.3011 13.8184 25.1896 14.0154C25.9797 14.0382 28.2282 14.3246 29.6789 16.4204C29.5617 16.4899 27.0003 17.9816 27.0281 21.0478ZM23.9559 12.0308C23.0803 13.0545 21.6796 13.8375 20.3153 13.7366C20.1367 12.3553 20.828 10.8864 21.6018 9.99018C22.4764 8.97318 23.9953 8.19402 25.2098 8.14075C25.3691 9.57634 24.795 10.991 23.9559 12.0308Z" fill="black"/>
</svg>
