<svg width="21" height="22" viewBox="0 0 21 22" fill="none" xmlns="http://www.w3.org/2000/svg">
<path d="M21 1.65781V20.3375C21 20.9797 20.4797 21.4953 19.8422 21.4953H14.4891V13.3672H17.2172L17.625 10.1984H14.4844V8.17344C14.4844 7.25469 14.7375 6.63125 16.0547 6.63125H17.7328V3.79531C17.4422 3.75781 16.4484 3.66875 15.2859 3.66875C12.8672 3.66875 11.2078 5.14531 11.2078 7.85938V10.1984H8.47031V13.3672H11.2078V21.5H1.15781C0.520313 21.5 0 20.9797 0 20.3422V1.65781C0 1.02031 0.520313 0.5 1.15781 0.5H19.8375C20.4797 0.5 21 1.02031 21 1.65781Z" fill="#1A1A1A"/>
</svg>
