<svg width="32" height="32" viewBox="0 0 32 32" fill="none" xmlns="http://www.w3.org/2000/svg">
<path d="M18 16H6V18H18V16Z" fill="#2F58EB"/>
<path d="M18 12H6V14H18V12Z" fill="#2F58EB"/>
<path d="M14 20H6V22H14V20Z" fill="#2F58EB"/>
<path d="M14 24H6V26H14V24Z" fill="#2F58EB"/>
<path d="M2 2H15V9H22V14H24V7.586L16.414 0H0V32H24V30H2V2ZM17 3.414L20.586 7H17V3.414Z" fill="#2F58EB"/>
<ellipse cx="25.6" cy="21.6" rx="6.4" ry="6.4" fill="black"/>
<path d="M26.2789 21.6002L28.3302 19.549L28.7532 19.126C28.8156 19.0636 28.8156 18.9622 28.7532 18.8998L28.3006 18.4471C28.2382 18.3847 28.1368 18.3847 28.0744 18.4471L25.6001 20.9214L23.1258 18.4469C23.0634 18.3845 22.962 18.3845 22.8996 18.4469L22.4468 18.8996C22.3844 18.962 22.3844 19.0634 22.4468 19.1258L24.9213 21.6002L22.4468 24.0745C22.3844 24.1369 22.3844 24.2383 22.4468 24.3007L22.8994 24.7533C22.9618 24.8157 23.0632 24.8157 23.1256 24.7533L25.6001 22.2791L27.6514 24.3303L28.0744 24.7533C28.1368 24.8157 28.2382 24.8157 28.3006 24.7533L28.7532 24.3007C28.8156 24.2383 28.8156 24.1369 28.7532 24.0745L26.2789 21.6002Z" fill="white"/>
</svg>
