<svg width="32" height="32" viewBox="0 0 32 32" fill="none" xmlns="http://www.w3.org/2000/svg">
<path d="M27.3137 4.68625C24.2917 1.66425 20.2738 0 16 0C11.7262 0 7.70825 1.66425 4.68625 4.68625C1.66431 7.70825 0 11.7262 0 16C0 20.2738 1.66431 24.2917 4.68625 27.3137C7.70825 30.3357 11.7262 32 16 32C20.2738 32 24.2917 30.3357 27.3137 27.3137C30.3357 24.2917 32 20.2738 32 16C32 11.7262 30.3357 7.70825 27.3137 4.68625ZM16 30.125C8.21144 30.125 1.875 23.7886 1.875 16C1.875 8.21144 8.21144 1.875 16 1.875C23.7886 1.875 30.125 8.21144 30.125 16C30.125 23.7886 23.7886 30.125 16 30.125Z" fill="black"/>
<path d="M17.0036 15.0626H14.9953C13.8511 15.0626 12.9203 14.1318 12.9203 12.9876C12.9203 11.8435 13.8511 10.9126 14.9953 10.9126H19.012C19.5297 10.9126 19.9495 10.4929 19.9495 9.97515C19.9495 9.4574 19.5297 9.03765 19.012 9.03765H16.937V6.96265C16.937 6.4449 16.5172 6.02515 15.9994 6.02515C15.4817 6.02515 15.0619 6.4449 15.0619 6.96265V9.03765H14.9953C12.8173 9.03765 11.0453 10.8096 11.0453 12.9876C11.0453 15.1656 12.8173 16.9376 14.9953 16.9376H17.0037C18.1478 16.9376 19.0786 17.8685 19.0786 19.0126C19.0786 20.1567 18.1478 21.0876 17.0037 21.0876H12.987C12.4693 21.0876 12.0495 21.5073 12.0495 22.0251C12.0495 22.5428 12.4693 22.9626 12.987 22.9626H15.0619V25.0376C15.0619 25.5554 15.4817 25.9751 15.9994 25.9751C16.5172 25.9751 16.937 25.5554 16.937 25.0376V22.9626H17.0036C19.1816 22.9626 20.9536 21.1906 20.9536 19.0126C20.9536 16.8346 19.1816 15.0626 17.0036 15.0626Z" fill="#2F58EB"/>
</svg>
