<svg width="32" height="32" viewBox="0 0 32 32" fill="none" xmlns="http://www.w3.org/2000/svg">
<path d="M3.9999 16C3.99403 19.0844 5.18157 22.0514 7.3139 24.28L8.7599 22.898C6.98375 21.0413 5.99473 18.5694 5.9999 16H3.9999Z" fill="black"/>
<path d="M23.2942 22.84L24.7522 24.21C26.8419 21.9874 28.0037 19.0506 28.0002 16H26.0002C26.0043 18.5418 25.0361 20.9889 23.2942 22.84Z" fill="black"/>
<path d="M19.68 6.70003L20.418 4.84004C17.5962 3.73186 14.4612 3.72401 11.6339 4.81803L12.3639 6.68203C14.7187 5.77083 17.3297 5.77725 19.68 6.70003Z" fill="black"/>
<path d="M16 25C12.692 25 10 27.244 10 30V31C10 31.2652 10.1054 31.5196 10.2929 31.7071C10.4804 31.8946 10.7348 32 11 32H21C21.2652 32 21.5196 31.8946 21.7071 31.7071C21.8946 31.5196 22 31.2652 22 31V30C22 27.244 19.308 25 16 25ZM12 30C12 28.346 13.8 27 16 27C18.2 27 20 28.346 20 30H12Z" fill="#2F58EB"/>
<path d="M13 21C13 21.5933 13.1759 22.1734 13.5056 22.6667C13.8352 23.1601 14.3038 23.5446 14.852 23.7716C15.4001 23.9987 16.0033 24.0581 16.5853 23.9424C17.1672 23.8266 17.7018 23.5409 18.1213 23.1213C18.5409 22.7018 18.8266 22.1672 18.9424 21.5853C19.0581 21.0033 18.9987 20.4001 18.7716 19.852C18.5446 19.3038 18.1601 18.8352 17.6667 18.5056C17.1734 18.1759 16.5933 18 16 18C15.2044 18 14.4413 18.3161 13.8787 18.8787C13.3161 19.4413 13 20.2044 13 21ZM17 21C17 21.1978 16.9414 21.3911 16.8315 21.5556C16.7216 21.72 16.5654 21.8482 16.3827 21.9239C16.2 21.9996 15.9989 22.0194 15.8049 21.9808C15.6109 21.9422 15.4327 21.847 15.2929 21.7071C15.153 21.5673 15.0578 21.3891 15.0192 21.1951C14.9806 21.0011 15.0004 20.8001 15.0761 20.6173C15.1518 20.4346 15.28 20.2784 15.4444 20.1685C15.6089 20.0587 15.8022 20 16 20C16.2652 20 16.5196 20.1054 16.7071 20.2929C16.8946 20.4804 17 20.7348 17 21Z" fill="#2F58EB"/>
<path d="M12 13V12C12 9.244 9.308 7 6 7C2.692 7 0 9.244 0 12V13C0 13.2652 0.105359 13.5196 0.292896 13.7071C0.480432 13.8946 0.734784 14 1 14H11C11.2652 14 11.5196 13.8946 11.7071 13.7071C11.8946 13.5196 12 13.2652 12 13ZM2 12C2 10.346 3.8 9 6 9C8.2 9 10 10.346 10 12H2Z" fill="#2F58EB"/>
<path d="M6 6C6.59334 6 7.17336 5.82405 7.66671 5.49441C8.16006 5.16477 8.54458 4.69623 8.77164 4.14805C8.99871 3.59988 9.05811 2.99667 8.94236 2.41473C8.8266 1.83279 8.54088 1.29824 8.12133 0.878683C7.70177 0.459126 7.16721 0.1734 6.58527 0.0576444C6.00332 -0.0581112 5.40013 0.00130296 4.85195 0.228366C4.30377 0.455429 3.83524 0.839944 3.50559 1.33329C3.17595 1.82664 3 2.40666 3 3C3 3.39397 3.07759 3.78408 3.22836 4.14805C3.37912 4.51203 3.6001 4.84275 3.87867 5.12132C4.15725 5.3999 4.48798 5.62087 4.85195 5.77164C5.21593 5.9224 5.60603 6 6 6ZM6 2C6.19778 2 6.39112 2.05865 6.55557 2.16853C6.72002 2.27841 6.84819 2.43459 6.92388 2.61732C6.99956 2.80004 7.01937 3.00111 6.98079 3.1951C6.9422 3.38908 6.84696 3.56725 6.7071 3.70711C6.56725 3.84696 6.38907 3.9422 6.19509 3.98079C6.00111 4.01937 5.80005 3.99957 5.61732 3.92388C5.4346 3.84819 5.27841 3.72002 5.16853 3.55557C5.05865 3.39113 5 3.19778 5 3C5 2.73479 5.10536 2.48043 5.2929 2.2929C5.48043 2.10536 5.73478 2 6 2Z" fill="#2F58EB"/>
<path d="M26 7C22.692 7 20 9.244 20 12V13C20 13.2652 20.1054 13.5196 20.2929 13.7071C20.4804 13.8946 20.7348 14 21 14H31C31.2652 14 31.5196 13.8946 31.7071 13.7071C31.8946 13.5196 32 13.2652 32 13V12C32 9.244 29.308 7 26 7ZM22 12C22 10.346 23.8 9 26 9C28.2 9 30 10.346 30 12H22Z" fill="#2F58EB"/>
<path d="M26 6C26.5933 6 27.1734 5.82405 27.6667 5.49441C28.1601 5.16477 28.5446 4.69623 28.7716 4.14805C28.9987 3.59988 29.0581 2.99667 28.9424 2.41473C28.8266 1.83279 28.5409 1.29824 28.1213 0.878683C27.7018 0.459126 27.1672 0.1734 26.5853 0.0576444C26.0033 -0.0581112 25.4001 0.00130296 24.852 0.228366C24.3038 0.455429 23.8352 0.839944 23.5056 1.33329C23.1759 1.82664 23 2.40666 23 3C23 3.39397 23.0776 3.78408 23.2284 4.14805C23.3791 4.51203 23.6001 4.84275 23.8787 5.12132C24.1573 5.3999 24.488 5.62087 24.852 5.77164C25.2159 5.9224 25.606 6 26 6ZM26 2C26.1978 2 26.3911 2.05865 26.5556 2.16853C26.72 2.27841 26.8482 2.43459 26.9239 2.61732C26.9996 2.80004 27.0194 3.00111 26.9808 3.1951C26.9422 3.38908 26.847 3.56725 26.7071 3.70711C26.5673 3.84696 26.3891 3.9422 26.1951 3.98079C26.0011 4.01937 25.8001 3.99957 25.6173 3.92388C25.4346 3.84819 25.2784 3.72002 25.1685 3.55557C25.0587 3.39113 25 3.19778 25 3C25 2.73479 25.1054 2.48043 25.2929 2.2929C25.4804 2.10536 25.7348 2 26 2Z" fill="#2F58EB"/>
</svg>
