<svg width="129" height="43" viewBox="0 0 129 43" fill="none" xmlns="http://www.w3.org/2000/svg">
<path d="M124.976 1H4.03143C2.36153 1 1.00781 2.34315 1.00781 4V39.6983C1.00781 41.3551 2.36153 42.6983 4.03143 42.6983H124.976C126.646 42.6983 128 41.3551 128 39.6983V4C128 2.34315 126.646 1 124.976 1Z" stroke="black"/>
<path fill-rule="evenodd" clip-rule="evenodd" d="M10.8699 17.9201C10.5092 18.0319 10.2759 18.3939 10.2759 18.9415L10.2781 36.1759C10.2781 36.7175 10.5042 37.0739 10.8549 37.1929L20.5813 27.5488L10.8699 17.9201Z" fill="url(#paint0_linear)"/>
<path fill-rule="evenodd" clip-rule="evenodd" d="M10.8545 37.1929C11.1068 37.2777 11.4229 37.2381 11.7674 37.0508L23.637 30.5787L20.581 27.5488L10.8545 37.1929Z" fill="url(#paint1_linear)"/>
<path fill-rule="evenodd" clip-rule="evenodd" d="M23.6387 30.5788L27.686 28.3724C28.5067 27.9234 28.5067 27.1929 27.686 26.745L23.6237 24.5304L20.5811 27.5471L23.6387 30.5788Z" fill="url(#paint2_linear)"/>
<path fill-rule="evenodd" clip-rule="evenodd" d="M23.6232 24.5304L11.7675 18.0672C11.4313 17.8848 11.1213 17.8424 10.8701 17.9201L20.581 27.5471L23.6232 24.5304Z" fill="url(#paint3_linear)"/>
<path fill-rule="evenodd" clip-rule="evenodd" d="M44.8672 31.7648L42.3534 32.3356C41.3349 32.4948 40.4204 32.6347 39.4519 32.6347C34.6034 32.6347 32.7559 29.0963 32.7559 26.3269C32.7559 22.9449 35.3735 19.8091 39.8564 19.8091C40.8049 19.8091 41.7172 19.9474 42.5485 20.1722C43.8659 20.5391 44.4821 20.9914 44.8672 21.2564L43.4069 22.6314L42.7913 22.768L43.2302 22.0745C42.6357 21.4988 41.5428 20.4361 39.4686 20.4361C36.6953 20.4361 34.6034 22.5262 34.6034 25.5777C34.6034 28.855 36.9921 31.9378 40.8232 31.9378C41.9489 31.9378 42.5285 31.7136 43.0547 31.5043V28.6947L40.4004 28.8362L41.8072 28.087H45.5323L45.0766 28.5217C44.9538 28.6253 44.9372 28.6605 44.9027 28.7993C44.8844 28.958 44.8672 29.4626 44.8672 29.64V31.7648ZM50.6319 32.41C47.6509 32.41 46.059 30.1088 46.059 28.0253C46.059 25.5909 48.0643 23.5079 50.9147 23.5079C53.6696 23.5079 55.3943 25.6476 55.3943 27.8942C55.3943 30.0884 53.6902 32.41 50.6319 32.41ZM52.9773 30.906C53.4273 30.311 53.5396 29.5684 53.5396 28.8445C53.5396 27.2072 52.7506 24.0847 50.4274 24.0847C49.8068 24.0847 49.1906 24.3243 48.7405 24.7155C48.0071 25.3661 47.8771 26.1836 47.8771 26.9858C47.8771 28.8225 48.7966 31.8519 51.0653 31.8519C51.7971 31.8519 52.5444 31.4999 52.9773 30.906ZM60.6107 32.41C57.6302 32.41 56.0355 30.1088 56.0355 28.0253C56.0355 25.5909 58.0403 23.5079 60.8918 23.5079C63.6484 23.5079 65.3747 25.6476 65.3747 27.8942C65.3747 30.0884 63.6684 32.41 60.6107 32.41ZM62.9555 30.906C63.4089 30.311 63.5189 29.5684 63.5189 28.8445C63.5189 27.2072 62.7321 24.0847 60.4067 24.0847C59.7883 24.0847 59.1654 24.3243 58.7165 24.7155C57.9842 25.3661 57.8536 26.1836 57.8536 26.9858C57.8536 28.8225 58.7693 31.8519 61.0418 31.8519C61.7753 31.8519 62.5237 31.4999 62.9555 30.906ZM72.2358 24.4202C72.6664 24.7711 73.5649 25.516 73.5649 26.9285C73.5649 28.3052 72.782 28.9541 71.9924 29.5684C71.7501 29.8102 71.4668 30.0725 71.4668 30.4779C71.4668 30.8895 71.7501 31.1126 71.9541 31.279L72.6314 31.7974C73.4548 32.4865 74.2055 33.1184 74.2055 34.402C74.2055 36.1506 72.4986 37.914 69.2731 37.914C66.556 37.914 65.2425 36.631 65.2425 35.2554C65.2425 34.586 65.5786 33.6379 66.6877 32.9884C67.8501 32.2838 69.4248 32.1896 70.2683 32.1345C70.0049 31.7974 69.7043 31.4442 69.7043 30.868C69.7043 30.5529 69.7999 30.365 69.8921 30.1435C69.6871 30.1628 69.4804 30.1827 69.2925 30.1827C67.3039 30.1827 66.1798 28.7117 66.1798 27.2623C66.1798 26.4073 66.5732 25.4587 67.3811 24.7711C68.4502 23.8985 69.7248 23.7481 70.7378 23.7481H74.6017L73.4004 24.4202H72.2358ZM70.9072 32.6733C70.7533 32.6535 70.6611 32.6535 70.4755 32.6535C70.3055 32.6535 69.2925 32.6898 68.508 32.9509C68.0929 33.1013 66.8933 33.5459 66.8933 34.8664C66.8933 36.1842 68.1885 37.1345 70.1921 37.1345C71.9924 37.1345 72.9481 36.279 72.9481 35.127C72.9481 34.1789 72.3297 33.6787 70.9072 32.6733ZM71.4462 29.1409C71.8796 28.7117 71.9174 28.119 71.9174 27.7824C71.9174 26.4453 71.1134 24.3629 69.5548 24.3629C69.0686 24.3629 68.5419 24.6048 68.2429 24.9788C67.9257 25.3661 67.8307 25.8685 67.8307 26.3517C67.8307 27.5967 68.563 29.6615 70.1738 29.6615C70.6439 29.6615 71.1495 29.4351 71.4462 29.1409ZM77.3605 30.7776C77.3605 31.4999 77.4905 31.6122 78.1067 31.669C78.4278 31.7065 78.7479 31.723 79.0646 31.7604L78.3712 32.1698H75.0668C75.5002 31.6122 75.5746 31.5566 75.5746 31.1853V30.7705L75.5674 19.7171H74.1083L75.5129 19.0461H78.1945C77.6133 19.38 77.4394 19.5833 77.3649 20.2339L77.3605 30.7776ZM86.5769 30.9214L85.68 31.7604C85.4728 31.8734 85.2667 32.0045 85.0611 32.0976C84.4382 32.378 83.8048 32.4485 83.2419 32.4485C82.6429 32.4485 81.7039 32.41 80.746 31.723C79.4152 30.7936 78.8335 29.196 78.8335 27.8039C78.8335 24.9215 81.1999 23.5079 83.1302 23.5079C83.8048 23.5079 84.4977 23.6754 85.0611 24.0285C85.9979 24.6428 86.2401 25.441 86.3746 25.8685L81.9667 27.6342L80.5232 27.7455C80.9904 30.1088 82.6029 31.4833 84.3848 31.4833C85.275 31.4833 85.9356 31.1952 86.5418 30.8983C86.5418 30.8983 86.6635 30.8355 86.5769 30.9214ZM83.9176 26.2206C84.2754 26.0916 84.4615 25.9804 84.4615 25.7214C84.4615 24.9788 83.6142 24.1211 82.6029 24.1211C81.8539 24.1211 80.4476 24.6995 80.4476 26.7081C80.4476 27.0216 80.4854 27.3554 80.5043 27.6893L83.9176 26.2206ZM91.9816 31.0007V35.7358H91.0331V23.687H91.9816V25.0593C92.5994 24.1723 93.7285 23.4693 95.0398 23.4693C97.3918 23.4693 98.976 25.2383 98.976 28.0385C98.976 30.82 97.3918 32.6259 95.0398 32.6259C93.8018 32.6259 92.6928 31.9929 91.9816 31.0007ZM97.9569 28.0385C97.9569 25.928 96.8473 24.3183 94.8798 24.3183C93.6579 24.3183 92.4894 25.2702 91.9816 26.1005V29.9573C92.4894 30.7892 93.6579 31.7759 94.8798 31.7759C96.8473 31.7759 97.9569 30.1524 97.9569 28.0385ZM100.271 20.36H101.219V32.4089H100.271V20.36ZM109.091 32.383C109.028 32.0805 108.98 31.8139 108.945 31.5913C108.916 31.3693 108.9 31.1423 108.9 30.9115C108.575 31.3847 108.114 31.7786 107.526 32.0888C106.937 32.4011 106.377 32.5543 105.61 32.5543C104.686 32.5543 103.968 32.329 103.457 31.8717C102.947 31.415 102.69 30.7964 102.69 30.0135C102.69 29.2318 103.062 28.5972 103.803 28.1118C104.544 27.6243 105.502 27.3819 106.688 27.3819H108.9V26.2982C108.9 25.6741 108.685 25.1832 108.257 24.8273C107.827 24.4709 107.223 24.2907 106.441 24.2907C105.726 24.2907 105.146 24.4555 104.704 24.7761C104.266 25.1033 104.046 25.5088 104.046 25.9974H103.075L103.055 25.9506C103.02 25.2917 103.324 24.7138 103.97 24.2147C104.613 23.7162 105.456 23.4655 106.494 23.4655C107.528 23.4655 108.365 23.7123 108.995 24.2048C109.625 24.6924 109.942 25.397 109.942 26.3181V30.6206C109.942 30.9297 109.957 31.2283 109.995 31.5191C110.035 31.8106 110.099 32.1014 110.184 32.383H109.091ZM105.726 31.6976C106.532 31.6976 107.111 31.5191 107.702 31.166C108.29 30.8151 108.69 30.3573 108.9 29.8031V28.1283H106.677C105.828 28.1283 105.125 28.3145 104.572 28.6903C104.018 29.0649 103.738 29.5183 103.738 30.0455C103.738 30.5429 103.916 30.9407 104.269 31.242C104.623 31.5467 105.108 31.6976 105.726 31.6976ZM111.862 34.9568C112.065 35.0466 112.411 35.1017 112.63 35.1017C113.21 35.1017 113.614 34.8664 113.977 34.0357L114.669 32.4816L110.933 23.687H111.991L115.196 31.3081L118.369 23.687H119.442L114.886 34.3271C114.413 35.4234 113.669 35.9506 112.647 35.9506C112.34 35.9506 111.936 35.8966 111.699 35.8245L111.862 34.9568Z" fill="black"/>
<path fill-rule="evenodd" clip-rule="evenodd" d="M32.6851 10.4256C32.6851 8.55448 34.0989 7.35089 35.8576 7.35089C37.0359 7.35089 37.806 7.9037 38.2867 8.58065L37.4255 9.0711C37.0993 8.62518 36.528 8.27836 35.8576 8.27836C34.6617 8.27836 33.7728 9.16908 33.7728 10.4256C33.7728 11.6637 34.6617 12.5728 35.8576 12.5728C36.4742 12.5728 37.0178 12.2966 37.2896 12.0383V11.1203H35.4771V10.2023H38.3411V12.4213C37.7522 13.0721 36.9 13.5086 35.8576 13.5086C34.0989 13.5086 32.6851 12.2883 32.6851 10.4256ZM39.6524 13.3928V7.44887H43.7944V8.36743H40.7124V9.89947H43.731V10.8175H40.7124V12.4748H43.7944V13.3928H39.6524ZM46.7285 13.3928V8.36743H44.8979V7.44887H49.6197V8.36743H47.7891V13.3928H46.7285ZM53.3052 7.44887H54.3652V13.3928H53.3052V7.44887ZM57.3186 13.3928V8.36743H55.488V7.44887H60.2098V8.36743H58.3792V13.3928H57.3186ZM63.6326 10.4256C63.6326 8.6519 64.91 7.35089 66.7236 7.35089C68.5265 7.35089 69.8141 8.6519 69.8141 10.4256C69.8141 12.1987 68.5265 13.4997 66.7236 13.4997C64.91 13.4997 63.6326 12.1987 63.6326 10.4256ZM68.7263 10.4256C68.7263 9.1958 67.9376 8.27836 66.7236 8.27836C65.4994 8.27836 64.7203 9.1958 64.7203 10.4256C64.7203 11.6458 65.4994 12.5728 66.7236 12.5728C67.9376 12.5728 68.7263 11.6458 68.7263 10.4256ZM75.2668 13.3928L72.1124 9.14236V13.3928H71.0524V7.44887H72.1401L75.2306 11.5662V7.44887H76.2911V13.3928H75.2668Z" fill="black"/>
<defs>
<linearGradient id="paint0_linear" x1="15.4286" y1="17.9201" x2="15.4286" y2="37.1929" gradientUnits="userSpaceOnUse">
<stop stop-color="#1E79AF"/>
<stop offset="1" stop-color="#63FFD3"/>
</linearGradient>
<linearGradient id="paint1_linear" x1="21.6836" y1="28.9481" x2="14.3371" y2="38.9649" gradientUnits="userSpaceOnUse">
<stop stop-color="#DC4057"/>
<stop offset="1" stop-color="#9E36BB"/>
</linearGradient>
<linearGradient id="paint2_linear" x1="24.4413" y1="24.5304" x2="24.4413" y2="30.4473" gradientUnits="userSpaceOnUse">
<stop stop-color="#FF9676"/>
<stop offset="1" stop-color="#FFD074"/>
</linearGradient>
<linearGradient id="paint3_linear" x1="13.0947" y1="17.8831" x2="20.4015" y2="29.5626" gradientUnits="userSpaceOnUse">
<stop stop-color="#51C6AD"/>
<stop offset="1" stop-color="#D5FFA1"/>
</linearGradient>
</defs>
</svg>
