<svg width="24" height="24" viewBox="0 0 24 24" fill="none" xmlns="http://www.w3.org/2000/svg">
<path d="M12 0C5.37256 0 0 5.37256 0 12C0 18.6274 5.37256 24 12 24C18.6274 24 24 18.6274 24 12C24 5.37256 18.6274 0 12 0ZM12 22.4516C6.25819 22.4516 1.54839 17.8038 1.54839 12C1.54839 6.25824 6.19621 1.54839 12 1.54839C17.7418 1.54839 22.4516 6.19621 22.4516 12C22.4516 17.7418 17.8038 22.4516 12 22.4516ZM18.8531 9.14705L10.1202 17.8099C9.8925 18.0357 9.52485 18.0343 9.29903 17.8066L5.14365 13.6176C4.91782 13.39 4.91927 13.0223 5.14694 12.7965L5.55919 12.3876C5.78685 12.1618 6.1545 12.1632 6.38032 12.3909L9.71787 15.7554L17.6263 7.91037C17.854 7.68455 18.2216 7.686 18.4474 7.91366L18.8564 8.32592C19.0822 8.55358 19.0807 8.92123 18.8531 9.14705Z" fill="white"/>
</svg>
