<svg width="16" height="16" viewBox="0 0 16 16" fill="none" xmlns="http://www.w3.org/2000/svg">
<path d="M15.4558 5.14113C15.309 5.01978 11.9645 2.33019 11.2292 1.74559C10.5385 1.19347 9.35741 0 8 0C6.64984 0 5.48012 1.17866 4.77078 1.74559C4.00631 2.35341 0.674844 5.03294 0.547344 5.13775C0.376207 5.27847 0.238367 5.45536 0.14373 5.65569C0.0490919 5.85603 6.28435e-06 6.07484 0 6.29641L0 14.5C0 15.3284 0.671562 16 1.5 16H14.5C15.3284 16 16 15.3284 16 14.5V6.29716C16 6.07628 15.9512 5.85814 15.8572 5.6583C15.7631 5.45846 15.626 5.28187 15.4558 5.14113ZM14.5 14.3125C14.5 14.3622 14.4802 14.4099 14.4451 14.4451C14.4099 14.4802 14.3622 14.5 14.3125 14.5H1.6875C1.63777 14.5 1.59008 14.4802 1.55492 14.4451C1.51975 14.4099 1.5 14.3622 1.5 14.3125V6.38584C1.5 6.32919 1.5255 6.27566 1.56956 6.24006C2.0655 5.83963 4.96934 3.504 5.70594 2.91841C6.27359 2.465 7.26244 1.5 8 1.5C8.74041 1.5 9.74553 2.48028 10.2941 2.91841C11.0307 3.50406 13.9348 5.84006 14.4305 6.24078C14.4522 6.25835 14.4697 6.28055 14.4818 6.30576C14.4938 6.33098 14.5 6.35856 14.5 6.3865V14.3125ZM13.5003 8.44675C13.6331 8.60797 13.6086 8.84659 13.4458 8.97741C12.5403 9.705 11.5934 10.4648 11.2292 10.7544C10.5199 11.3213 9.35016 12.5 8 12.5C6.64213 12.5 5.45978 11.3051 4.77078 10.7544C4.41831 10.4742 3.46628 9.71022 2.55431 8.97734C2.3915 8.8465 2.36703 8.60791 2.49978 8.44669L2.97659 7.86769C3.10716 7.70916 3.34087 7.68509 3.50094 7.81375C4.39525 8.53253 5.33112 9.28359 5.70594 9.58159C6.25447 10.0197 7.25959 11 8 11C8.73756 11 9.72644 10.035 10.2941 9.58159C10.6689 9.28362 11.6048 8.53253 12.4992 7.81384C12.6592 7.68522 12.8929 7.70928 13.0235 7.86781L13.5003 8.44675Z" fill="#1A1A1A"/>
</svg>
